<svg xmlns="http://www.w3.org/2000/svg" xmlns:xlink="http://www.w3.org/1999/xlink" width="1080" zoomAndPan="magnify" viewBox="0 0 810 809.999993" height="1080" preserveAspectRatio="xMidYMid meet" version="1.0"><defs><g/><clipPath id="a9fb8ada6a"><path d="M 278 202 L 434.089844 202 L 434.089844 525 L 278 525 Z M 278 202 " clip-rule="nonzero"/></clipPath><clipPath id="bd43f022c5"><path d="M 510 198 L 525.136719 198 L 525.136719 612 L 510 612 Z M 510 198 " clip-rule="nonzero"/></clipPath><clipPath id="a3cf05ecdf"><path d="M 18.886719 198 L 35 198 L 35 612 L 18.886719 612 Z M 18.886719 198 " clip-rule="nonzero"/></clipPath><clipPath id="80588088e3"><path d="M 65 151.796875 L 479 151.796875 L 479 167 L 65 167 Z M 65 151.796875 " clip-rule="nonzero"/></clipPath><clipPath id="65490a0b93"><path d="M 65 642 L 479 642 L 479 658.046875 L 65 658.046875 Z M 65 642 " clip-rule="nonzero"/></clipPath><clipPath id="81310e15e3"><path d="M 478 151.796875 L 525.136719 151.796875 L 525.136719 199 L 478 199 Z M 478 151.796875 " clip-rule="nonzero"/></clipPath><clipPath id="e979b10618"><path d="M 18.886719 151.796875 L 66 151.796875 L 66 199 L 18.886719 199 Z M 18.886719 151.796875 " clip-rule="nonzero"/></clipPath><clipPath id="85a55c088d"><path d="M 478 611 L 525.136719 611 L 525.136719 658.046875 L 478 658.046875 Z M 478 611 " clip-rule="nonzero"/></clipPath><clipPath id="5b92bf5fb4"><path d="M 18.886719 611 L 66 611 L 66 658.046875 L 18.886719 658.046875 Z M 18.886719 611 " clip-rule="nonzero"/></clipPath></defs><path fill="#f6ae84" d="M 190.046875 467.46875 C 189.074219 470.132812 190.40625 473.15625 193.035156 474.128906 C 195.699219 475.101562 198.652344 473.699219 199.660156 471.035156 C 204.878906 457.175781 220.429688 450.082031 234.363281 455.265625 C 237.0625 456.238281 239.976562 454.835938 240.988281 452.171875 C 241.996094 449.507812 240.699219 446.554688 238 445.546875 C 218.738281 438.417969 197.246094 448.246094 190.046875 467.46875 Z M 190.046875 467.46875 " fill-opacity="1" fill-rule="nonzero"/><path fill="#f6ae84" d="M 256.359375 206.074219 C 249.300781 201.464844 240.375 201.179688 230.007812 205.101562 C 229.179688 205.355469 211.933594 211.511719 200.738281 222.09375 C 200.019531 222.058594 199.371094 221.949219 198.652344 221.949219 C 178.09375 221.949219 161.425781 238.652344 161.425781 259.246094 C 161.425781 264.140625 162.398438 268.894531 164.269531 273.359375 C 146.089844 278.363281 132.699219 294.777344 132.699219 314.507812 C 132.699219 318.25 133.382812 321.921875 134.28125 325.523438 C 121.285156 333.152344 113.042969 347.15625 113.042969 362.421875 C 113.042969 373.4375 117.289062 383.375 124.203125 390.96875 C 121.683594 396.515625 120.242188 402.5625 120.242188 408.753906 C 120.242188 425.996094 130.71875 441.371094 146.199219 448.066406 C 144.652344 452.132812 143.824219 456.5625 143.824219 460.988281 C 143.824219 481.582031 160.527344 498.25 181.117188 498.25 C 182.054688 498.25 183.0625 498.035156 184.070312 497.960938 C 189.6875 513.371094 206.355469 524.207031 225.757812 524.207031 C 249.878906 524.207031 269.535156 507.464844 269.535156 486.945312 L 269.535156 450.515625 C 269.535156 450.515625 269.535156 450.515625 269.535156 450.441406 L 269.535156 312.597656 C 269.535156 312.597656 269.535156 312.597656 269.535156 312.5625 L 269.535156 312.527344 L 269.5 231.957031 C 269.5 231.238281 268.382812 213.921875 256.359375 206.074219 Z M 259.238281 287.003906 C 252.46875 279.839844 242.894531 275.300781 232.238281 275.300781 C 229.394531 275.300781 227.089844 277.605469 227.089844 280.449219 C 227.089844 283.257812 229.394531 285.597656 232.238281 285.597656 C 247.140625 285.597656 259.238281 297.695312 259.238281 312.597656 L 259.238281 424.953125 C 252.46875 417.789062 242.894531 413.21875 232.238281 413.21875 C 229.394531 413.183594 227.089844 415.484375 227.089844 418.292969 C 227.089844 421.175781 229.394531 423.441406 232.238281 423.441406 C 247.140625 423.441406 259.238281 435.609375 259.238281 450.441406 L 259.238281 486.945312 C 259.238281 501.777344 244.261719 513.945312 225.757812 513.945312 C 209.378906 513.945312 195.445312 504.441406 192.746094 491.445312 C 192.132812 488.675781 189.363281 486.945312 186.589844 487.414062 C 186.589844 487.414062 186.554688 487.414062 186.519531 487.414062 C 184.753906 487.847656 182.953125 487.988281 181.117188 487.988281 C 166.214844 487.988281 154.082031 475.894531 154.082031 460.988281 C 154.082031 456.273438 155.34375 451.703125 157.644531 447.632812 C 157.789062 447.417969 157.828125 447.128906 157.898438 446.84375 C 157.933594 446.699219 158.078125 446.625 158.1875 446.480469 C 158.1875 446.339844 158.1875 446.121094 158.1875 445.90625 C 158.222656 445.691406 158.222656 445.472656 158.222656 445.1875 C 158.222656 444.753906 158.222656 444.359375 158.1875 443.996094 C 158.078125 443.746094 158.007812 443.53125 157.898438 443.351562 C 157.753906 442.917969 157.609375 442.628906 157.359375 442.304688 C 157.25 442.054688 157.035156 441.875 156.855469 441.65625 C 156.566406 441.371094 156.277344 441.152344 156.027344 440.867188 C 155.882812 440.792969 155.847656 440.722656 155.703125 440.648438 C 155.523438 440.507812 155.269531 440.507812 155.019531 440.398438 C 154.875 440.324219 154.730469 440.253906 154.550781 440.183594 C 140.402344 436.292969 130.574219 423.371094 130.574219 408.753906 C 130.574219 405.152344 131.367188 401.589844 132.519531 398.277344 C 139.25 402.632812 147.242188 405.296875 155.882812 405.296875 C 158.691406 405.296875 161.03125 402.992188 161.03125 400.148438 C 161.03125 397.269531 158.691406 394.929688 155.882812 394.929688 C 137.882812 394.929688 123.339844 380.351562 123.339844 362.386719 C 123.339844 349.75 130.71875 338.230469 142.167969 332.867188 L 142.203125 332.867188 C 142.273438 332.828125 142.347656 332.757812 142.417969 332.722656 C 146.667969 330.8125 151.203125 329.84375 155.882812 329.84375 C 158.691406 329.84375 161.03125 327.539062 161.03125 324.695312 C 161.03125 321.851562 158.691406 319.617188 155.882812 319.617188 C 151.707031 319.617188 147.746094 320.375 143.824219 321.527344 C 143.320312 319.222656 142.957031 316.882812 142.957031 314.507812 C 142.957031 296.542969 157.609375 281.960938 175.539062 281.960938 C 187.957031 281.960938 199.082031 288.839844 204.664062 299.960938 C 205.957031 302.519531 209.019531 303.488281 211.574219 302.230469 C 214.09375 300.96875 215.136719 297.910156 213.84375 295.355469 C 206.535156 280.738281 191.882812 271.664062 175.539062 271.664062 C 175.359375 271.664062 175.214844 271.703125 175 271.703125 C 172.945312 267.851562 171.6875 263.636719 171.6875 259.210938 C 171.6875 244.304688 183.78125 232.210938 198.6875 232.210938 C 208.476562 232.210938 217.515625 237.539062 222.300781 246.105469 C 224.460938 250.101562 225.652344 254.636719 225.652344 259.210938 C 225.652344 262.019531 227.992188 264.359375 230.796875 264.359375 C 233.640625 264.359375 235.980469 262.019531 235.980469 259.210938 C 235.980469 252.875 234.363281 246.609375 231.300781 241.136719 C 227.164062 233.792969 220.863281 228.25 213.410156 225.011719 C 222.554688 218.675781 233.246094 214.859375 233.460938 214.75 C 240.769531 212.015625 246.601562 211.976562 250.742188 214.679688 C 258.300781 219.609375 259.238281 232.246094 259.238281 232.246094 Z M 259.238281 287.003906 " fill-opacity="1" fill-rule="nonzero"/><path fill="#f6ae84" d="M 203.691406 337.1875 C 203.1875 334.449219 200.488281 332.613281 197.679688 333.152344 C 194.871094 333.695312 193.105469 336.394531 193.644531 339.164062 C 195.589844 349.496094 201.0625 358.535156 208.839844 365.410156 C 208.660156 366.058594 208.550781 366.707031 208.585938 367.390625 C 209.449219 382.257812 198.109375 395.109375 183.277344 396.011719 C 180.398438 396.152344 178.273438 398.601562 178.417969 401.410156 C 178.597656 404.144531 180.867188 406.269531 183.566406 406.269531 C 183.636719 406.269531 183.746094 406.269531 183.925781 406.269531 C 202.574219 405.152344 217.082031 390.320312 218.628906 372.140625 C 225.183594 375.453125 232.308594 377.183594 239.582031 377.183594 C 242.570312 377.183594 245.558594 376.929688 248.472656 376.355469 C 251.210938 375.851562 253.046875 373.148438 252.542969 370.34375 C 252.039062 367.605469 249.230469 365.734375 246.53125 366.273438 C 236.882812 368.144531 227.164062 366.128906 219.132812 360.621094 C 211 355.113281 205.527344 346.796875 203.691406 337.1875 Z M 203.691406 337.1875 " fill-opacity="1" fill-rule="nonzero"/><path fill="#f6ae84" d="M 309.78125 445.582031 C 307.15625 446.554688 305.824219 449.507812 306.792969 452.207031 C 307.730469 454.871094 310.753906 456.273438 313.417969 455.300781 C 327.351562 450.082031 342.9375 457.210938 348.160156 471.070312 C 349.128906 473.699219 352.082031 475.101562 354.746094 474.128906 C 357.445312 473.15625 358.742188 470.132812 357.734375 467.433594 C 350.605469 448.246094 329.042969 438.417969 309.78125 445.582031 Z M 309.78125 445.582031 " fill-opacity="1" fill-rule="nonzero"/><g clip-path="url(#a9fb8ada6a)"><path fill="#f6ae84" d="M 434.773438 362.421875 C 434.773438 347.15625 426.53125 333.152344 413.5 325.523438 C 414.398438 321.921875 415.082031 318.25 415.082031 314.507812 C 415.082031 294.8125 401.691406 278.363281 383.582031 273.359375 C 385.382812 268.894531 386.390625 264.140625 386.390625 259.246094 C 386.390625 238.691406 369.6875 221.949219 349.128906 221.949219 C 348.445312 221.949219 347.796875 222.058594 347.042969 222.09375 C 335.847656 211.511719 318.566406 205.355469 317.808594 205.101562 C 307.40625 201.179688 298.476562 201.464844 291.421875 206.074219 C 279.433594 213.921875 278.320312 231.238281 278.320312 231.957031 L 278.28125 312.527344 L 278.28125 312.5625 C 278.28125 312.5625 278.28125 312.597656 278.28125 312.597656 L 278.28125 450.441406 C 278.28125 450.515625 278.28125 450.515625 278.28125 450.515625 L 278.28125 486.945312 C 278.28125 507.464844 297.9375 524.207031 322.058594 524.207031 C 341.460938 524.207031 358.128906 513.371094 363.710938 497.960938 C 364.71875 498.035156 365.726562 498.25 366.664062 498.25 C 387.21875 498.25 403.957031 481.582031 403.957031 460.988281 C 403.957031 456.5625 403.128906 452.132812 401.582031 448.066406 C 417.132812 441.371094 427.539062 425.960938 427.539062 408.753906 C 427.539062 402.5625 426.171875 396.515625 423.613281 390.96875 C 430.527344 383.375 434.773438 373.4375 434.773438 362.421875 Z M 393.230469 440.183594 C 393.050781 440.253906 392.941406 440.324219 392.761719 440.398438 C 392.546875 440.507812 392.257812 440.507812 392.078125 440.648438 C 391.933594 440.722656 391.898438 440.792969 391.753906 440.867188 C 391.464844 441.152344 391.214844 441.371094 390.960938 441.65625 C 390.746094 441.875 390.53125 442.054688 390.421875 442.269531 C 390.171875 442.628906 390.0625 442.917969 389.882812 443.351562 C 389.808594 443.53125 389.703125 443.746094 389.628906 444.035156 C 389.558594 444.394531 389.558594 444.789062 389.558594 445.222656 C 389.558594 445.511719 389.558594 445.726562 389.628906 445.941406 C 389.628906 446.15625 389.558594 446.375 389.628906 446.519531 C 389.703125 446.660156 389.847656 446.734375 389.882812 446.878906 C 390.027344 447.128906 390.027344 447.417969 390.171875 447.632812 C 392.4375 451.703125 393.734375 456.273438 393.734375 460.988281 C 393.734375 475.894531 381.53125 487.988281 366.664062 487.988281 C 364.828125 487.988281 363.027344 487.847656 361.261719 487.414062 L 361.191406 487.414062 C 358.453125 486.910156 355.683594 488.675781 355.070312 491.410156 C 352.371094 504.441406 338.4375 513.945312 322.058594 513.945312 C 303.519531 513.945312 288.542969 501.777344 288.542969 486.945312 L 288.542969 450.441406 C 288.542969 435.609375 300.675781 423.441406 315.542969 423.441406 C 318.386719 423.441406 320.726562 421.175781 320.726562 418.292969 C 320.726562 415.484375 318.421875 413.144531 315.542969 413.144531 C 304.886719 413.144531 295.308594 417.71875 288.542969 424.882812 L 288.542969 312.5625 C 288.542969 297.65625 300.675781 285.5625 315.542969 285.5625 C 318.386719 285.5625 320.726562 283.257812 320.726562 280.414062 C 320.726562 277.570312 318.421875 275.230469 315.542969 275.230469 C 304.886719 275.230469 295.308594 279.765625 288.542969 286.929688 L 288.542969 232.246094 C 288.542969 232.246094 289.441406 219.609375 297.109375 214.679688 C 301.179688 211.976562 307.046875 212.015625 314.355469 214.75 C 314.570312 214.859375 325.261719 218.675781 334.40625 225.011719 C 326.953125 228.25 320.582031 233.792969 316.515625 241.136719 C 313.492188 246.644531 311.871094 252.910156 311.871094 259.210938 C 311.871094 262.019531 314.136719 264.359375 317.019531 264.359375 C 319.863281 264.359375 322.167969 262.019531 322.167969 259.210938 C 322.167969 254.636719 323.320312 250.101562 325.550781 246.105469 C 330.265625 237.574219 339.300781 232.246094 349.128906 232.246094 C 364 232.246094 376.128906 244.34375 376.128906 259.246094 C 376.128906 263.675781 374.835938 267.886719 372.820312 271.738281 C 372.601562 271.738281 372.421875 271.703125 372.242188 271.703125 C 355.898438 271.703125 341.246094 280.738281 333.9375 295.390625 C 332.679688 297.910156 333.6875 300.96875 336.242188 302.230469 C 338.761719 303.488281 341.824219 302.480469 343.117188 299.960938 C 348.664062 288.839844 359.824219 281.960938 372.242188 281.960938 C 390.171875 281.960938 404.824219 296.542969 404.824219 314.507812 C 404.824219 316.882812 404.425781 319.222656 403.957031 321.527344 C 400.105469 320.375 396.144531 319.617188 391.898438 319.617188 C 389.089844 319.617188 386.714844 321.886719 386.714844 324.730469 C 386.714844 327.574219 389.089844 329.878906 391.898438 329.878906 C 396.613281 329.878906 401.113281 330.851562 405.328125 332.757812 C 405.433594 332.792969 405.507812 332.867188 405.578125 332.902344 L 405.652344 332.902344 C 417.097656 338.230469 424.441406 349.785156 424.441406 362.421875 C 424.441406 380.386719 409.863281 394.964844 391.898438 394.964844 C 389.089844 394.964844 386.714844 397.269531 386.714844 400.1875 C 386.714844 402.992188 389.054688 405.335938 391.898438 405.335938 C 400.539062 405.335938 408.53125 402.671875 415.226562 398.3125 C 416.449219 401.554688 417.207031 405.152344 417.207031 408.753906 C 417.207031 423.371094 407.378906 436.292969 393.230469 440.183594 Z M 393.230469 440.183594 " fill-opacity="1" fill-rule="nonzero"/></g><path fill="#f6ae84" d="M 364.574219 396.011719 C 349.707031 395.109375 338.367188 382.257812 339.195312 367.390625 C 339.265625 366.707031 339.160156 366.058594 338.941406 365.410156 C 346.753906 358.570312 352.191406 349.535156 354.171875 339.164062 C 354.746094 336.394531 352.945312 333.695312 350.136719 333.152344 C 347.292969 332.613281 344.59375 334.449219 344.089844 337.1875 C 342.21875 346.796875 336.746094 355.113281 328.683594 360.621094 C 320.582031 366.128906 310.863281 368.144531 301.285156 366.273438 C 298.585938 365.734375 295.742188 367.605469 295.238281 370.34375 C 294.734375 373.148438 296.570312 375.851562 299.378906 376.390625 C 302.332031 376.929688 305.28125 377.21875 308.234375 377.21875 C 315.507812 377.21875 322.671875 375.488281 329.1875 372.179688 C 330.734375 390.320312 345.207031 405.191406 363.925781 406.304688 C 364.070312 406.304688 364.140625 406.304688 364.214844 406.304688 C 366.949219 406.304688 369.21875 404.183594 369.398438 401.445312 C 369.507812 398.601562 367.417969 396.152344 364.574219 396.011719 Z M 364.574219 396.011719 " fill-opacity="1" fill-rule="nonzero"/><g fill="#5d5491" fill-opacity="1"><g transform="translate(124.914629, 583.149999)"><g><path d="M 25.210938 -34.054688 C 19.535156 -34.054688 15.773438 -31.878906 13.464844 -28.183594 L 13.464844 -46.199219 L 3.695312 -46.199219 L 3.695312 0 L 13.464844 0 L 13.464844 -4.753906 C 15.773438 -1.121094 19.535156 1.054688 25.210938 1.054688 C 36.035156 1.054688 40.457031 -6.996094 40.457031 -16.566406 C 40.457031 -25.9375 36.035156 -34.054688 25.210938 -34.054688 Z M 22.242188 -6.601562 C 16.039062 -6.601562 13.464844 -9.769531 13.464844 -16.5 C 13.464844 -23.230469 16.039062 -26.398438 22.242188 -26.398438 C 28.445312 -26.398438 30.625 -23.363281 30.625 -16.5 C 30.625 -9.703125 28.445312 -6.601562 22.242188 -6.601562 Z M 22.242188 -6.601562 "/></g></g></g><g fill="#5d5491" fill-opacity="1"><g transform="translate(167.748661, 583.149999)"><g><path d="M 27.523438 -33 L 27.523438 -18.019531 C 27.523438 -10.558594 24.484375 -6.929688 19.601562 -6.929688 C 15.445312 -6.929688 13.132812 -9.042969 13.132812 -14.257812 L 13.132812 -33 L 3.367188 -33 L 3.367188 -12.804688 C 3.367188 -4.15625 7.195312 1.054688 15.839844 1.054688 C 21.78125 1.054688 25.476562 -1.914062 27.523438 -6.335938 L 27.523438 0 L 37.289062 0 L 37.289062 -33 Z M 27.523438 -33 "/></g></g></g><g fill="#5d5491" fill-opacity="1"><g transform="translate(208.866686, 583.149999)"><g><path d="M 23.429688 -33.527344 C 17.886719 -33.527344 14.914062 -30.625 13.332031 -25.9375 L 13.332031 -33 L 3.828125 -33 L 3.828125 0 L 13.597656 0 L 13.597656 -13.003906 C 13.597656 -20.460938 15.839844 -24.023438 22.375 -24.023438 L 25.609375 -24.023438 L 25.609375 -33.527344 Z M 23.429688 -33.527344 "/></g></g></g><g fill="#5d5491" fill-opacity="1"><g transform="translate(235.992707, 583.149999)"><g><path d="M 25.476562 -34.054688 C 19.46875 -34.054688 15.707031 -31.019531 13.597656 -26.53125 L 13.597656 -33 L 3.828125 -33 L 3.828125 0 L 13.597656 0 L 13.597656 -14.980469 C 13.597656 -22.835938 16.5 -26.136719 21.714844 -26.136719 C 25.738281 -26.136719 27.984375 -24.023438 27.984375 -18.742188 L 27.984375 0 L 37.753906 0 L 37.753906 -20.261719 C 37.753906 -28.90625 34.121094 -34.054688 25.476562 -34.054688 Z M 25.476562 -34.054688 "/></g></g></g><g fill="#5d5491" fill-opacity="1"><g transform="translate(277.110732, 583.149999)"><g><path d="M 26.136719 1.121094 C 42.964844 1.121094 49.234375 -9.835938 49.234375 -21.910156 C 49.234375 -33.792969 42.964844 -45.011719 26.136719 -45.011719 C 9.304688 -45.011719 2.96875 -33.859375 2.96875 -21.910156 C 2.96875 -9.769531 9.304688 1.121094 26.136719 1.121094 Z M 13.464844 -21.910156 C 13.464844 -31.613281 16.5 -36.828125 26.136719 -36.828125 C 35.773438 -36.828125 38.808594 -31.613281 38.808594 -21.910156 C 38.808594 -12.34375 35.773438 -7.128906 26.136719 -7.128906 C 16.5 -7.128906 13.464844 -12.34375 13.464844 -21.910156 Z M 13.464844 -21.910156 "/></g></g></g><g fill="#5d5491" fill-opacity="1"><g transform="translate(329.316764, 583.149999)"><g><path d="M 3.628906 -16.433594 C 3.628906 -4.949219 10.230469 1.054688 23.363281 1.054688 C 36.496094 1.054688 43.03125 -5.015625 43.03125 -16.433594 L 43.03125 -43.890625 L 33.066406 -43.890625 L 33.066406 -17.820312 C 33.066406 -9.304688 29.832031 -7.128906 23.363281 -7.128906 C 16.894531 -7.128906 13.660156 -9.304688 13.660156 -17.820312 L 13.660156 -43.890625 L 3.628906 -43.890625 Z M 3.628906 -16.433594 "/></g></g></g><g fill="#5d5491" fill-opacity="1"><g transform="translate(375.97881, 583.149999)"><g><path d="M 41.117188 -43.890625 L 2.179688 -43.890625 L 2.179688 -35.96875 L 16.632812 -35.96875 L 16.632812 0 L 26.664062 0 L 26.664062 -35.96875 L 41.117188 -35.96875 Z M 41.117188 -43.890625 "/></g></g></g><g clip-path="url(#bd43f022c5)"><path fill="#d1c2d9" d="M 510.011719 198.1875 L 525.136719 198.1875 L 525.136719 611.660156 L 510.011719 611.660156 Z M 510.011719 198.1875 " fill-opacity="1" fill-rule="nonzero"/></g><g clip-path="url(#a3cf05ecdf)"><path fill="#d1c2d9" d="M 18.886719 198.1875 L 34.015625 198.1875 L 34.015625 611.660156 L 18.886719 611.660156 Z M 18.886719 198.1875 " fill-opacity="1" fill-rule="nonzero"/></g><g clip-path="url(#80588088e3)"><path fill="#d1c2d9" d="M 65.277344 151.796875 L 478.75 151.796875 L 478.75 166.925781 L 65.277344 166.925781 Z M 65.277344 151.796875 " fill-opacity="1" fill-rule="nonzero"/></g><g clip-path="url(#65490a0b93)"><path fill="#d1c2d9" d="M 65.277344 642.921875 L 478.75 642.921875 L 478.75 658.046875 L 65.277344 658.046875 Z M 65.277344 642.921875 " fill-opacity="1" fill-rule="nonzero"/></g><g clip-path="url(#81310e15e3)"><path fill="#d1c2d9" d="M 510.011719 166.925781 L 510.011719 198.1875 L 525.136719 198.1875 L 525.136719 151.796875 L 478.75 151.796875 L 478.75 166.925781 Z M 510.011719 166.925781 " fill-opacity="1" fill-rule="nonzero"/></g><g clip-path="url(#e979b10618)"><path fill="#d1c2d9" d="M 34.015625 166.925781 L 65.277344 166.925781 L 65.277344 151.796875 L 18.886719 151.796875 L 18.886719 198.1875 L 34.015625 198.1875 Z M 34.015625 166.925781 " fill-opacity="1" fill-rule="nonzero"/></g><g clip-path="url(#85a55c088d)"><path fill="#d1c2d9" d="M 510.011719 642.921875 L 478.75 642.921875 L 478.75 658.046875 L 525.136719 658.046875 L 525.136719 611.660156 L 510.011719 611.660156 Z M 510.011719 642.921875 " fill-opacity="1" fill-rule="nonzero"/></g><g clip-path="url(#5b92bf5fb4)"><path fill="#d1c2d9" d="M 34.015625 642.921875 L 34.015625 611.660156 L 18.886719 611.660156 L 18.886719 658.046875 L 65.277344 658.046875 L 65.277344 642.921875 Z M 34.015625 642.921875 " fill-opacity="1" fill-rule="nonzero"/></g></svg>